{"glyphs":{"0":{"ha":667,"x_min":0,"x_max":0,"o":"m 593 472 l 593 907 l 486 801 l 486 533 l 593 472 z m 574 926 l 93 926 l 199 819 l 468 819 l 574 926 z m 181 533 l 181 801 l 74 907 l 74 472 l 181 533 z m 593 18 l 593 454 l 486 392 l 486 125 l 593 18 z m 574 0 l 468 107 l 199 107 l 93 0 l 574 0 z m 181 125 l 181 392 l 74 454 l 74 18 l 181 125 z "},"1":{"ha":667,"x_min":0,"x_max":0,"o":"m 574 926 l 292 926 l 399 819 l 468 819 l 574 926 z m 593 472 l 593 907 l 486 801 l 486 533 l 593 472 z m 593 18 l 593 454 l 486 392 l 486 125 l 593 18 z "},"2":{"ha":667,"x_min":0,"x_max":0,"o":"m 593 472 l 593 907 l 486 801 l 486 533 l 593 472 z m 574 926 l 93 926 l 199 819 l 468 819 l 574 926 z m 551 463 l 458 517 l 208 517 l 115 463 l 208 410 l 458 410 l 551 463 z m 574 0 l 468 107 l 199 107 l 93 0 l 574 0 z m 181 125 l 181 392 l 74 454 l 74 18 l 181 125 z "},"3":{"ha":667,"x_min":0,"x_max":0,"o":"m 593 472 l 593 907 l 486 801 l 486 533 l 593 472 z m 574 926 l 93 926 l 199 819 l 468 819 l 574 926 z m 556 463 l 464 517 l 222 517 l 129 463 l 222 410 l 464 410 l 556 463 z m 593 18 l 593 454 l 486 392 l 486 125 l 593 18 z m 574 0 l 468 107 l 199 107 l 93 0 l 574 0 z "},"4":{"ha":667,"x_min":0,"x_max":0,"o":"m 593 472 l 593 926 l 486 819 l 486 533 l 593 472 z m 181 533 l 181 819 l 74 926 l 74 472 l 181 533 z m 546 463 l 454 517 l 213 517 l 121 463 l 213 410 l 454 410 l 546 463 z m 593 0 l 593 454 l 486 392 l 486 107 l 593 0 z "},"5":{"ha":667,"x_min":0,"x_max":0,"o":"m 574 926 l 93 926 l 199 819 l 468 819 l 574 926 z m 181 533 l 181 801 l 74 907 l 74 472 l 181 533 z m 546 463 l 454 517 l 213 517 l 121 463 l 213 410 l 454 410 l 546 463 z m 593 18 l 593 454 l 486 392 l 486 125 l 593 18 z m 574 0 l 468 107 l 199 107 l 93 0 l 574 0 z "},"6":{"ha":667,"x_min":0,"x_max":0,"o":"m 574 926 l 93 926 l 199 819 l 468 819 l 574 926 z m 181 533 l 181 801 l 74 907 l 74 472 l 181 533 z m 546 463 l 454 517 l 213 517 l 121 463 l 213 410 l 454 410 l 546 463 z m 593 18 l 593 454 l 486 392 l 486 125 l 593 18 z m 574 0 l 468 107 l 199 107 l 93 0 l 574 0 z m 181 125 l 181 392 l 74 454 l 74 18 l 181 125 z "},"7":{"ha":649,"x_min":0,"x_max":0,"o":"m 574 472 l 574 907 l 468 801 l 468 533 l 574 472 z m 556 926 l 74 926 l 181 819 l 449 819 l 556 926 z m 574 0 l 574 454 l 468 392 l 468 107 l 574 0 z "},"8":{"ha":667,"x_min":0,"x_max":0,"o":"m 593 472 l 593 907 l 486 801 l 486 533 l 593 472 z m 574 926 l 93 926 l 199 819 l 468 819 l 574 926 z m 181 533 l 181 801 l 74 907 l 74 472 l 181 533 z m 546 463 l 454 517 l 213 517 l 121 463 l 213 410 l 454 410 l 546 463 z m 593 18 l 593 454 l 486 392 l 486 125 l 593 18 z m 574 0 l 468 107 l 199 107 l 93 0 l 574 0 z m 181 125 l 181 392 l 74 454 l 74 18 l 181 125 z "},"9":{"ha":667,"x_min":0,"x_max":0,"o":"m 593 472 l 593 907 l 486 801 l 486 533 l 593 472 z m 574 926 l 93 926 l 199 819 l 468 819 l 574 926 z m 181 533 l 181 801 l 74 907 l 74 472 l 181 533 z m 546 463 l 454 517 l 213 517 l 121 463 l 213 410 l 454 410 l 546 463 z m 593 18 l 593 454 l 486 392 l 486 125 l 593 18 z m 574 0 l 468 107 l 199 107 l 93 0 l 574 0 z "}," ":{"ha":347,"x_min":0,"x_max":0,"o":""},"!":{"ha":292,"x_min":0,"x_max":0,"o":"m 217 315 l 217 963 l 111 857 l 111 407 l 217 315 z m 217 -14 l 217 213 l 111 175 l 111 15 l 217 -14 z "},"$":{"ha":711,"x_min":0,"x_max":0,"o":"m 411 949 l 411 1024 l 364 1076 l 318 1024 l 318 949 l 411 949 z m 638 926 l 231 926 l 178 872 l 231 819 l 290 819 l 364 899 l 439 819 l 531 819 l 638 926 z m 411 517 l 411 819 l 364 871 l 318 819 l 318 517 l 364 469 l 411 517 z m 579 463 l 486 517 l 450 517 l 396 463 l 450 410 l 486 410 l 579 463 z m 625 125 l 625 454 l 519 392 l 519 125 l 572 72 l 625 125 z m 214 533 l 214 801 l 160 854 l 107 801 l 107 472 l 214 533 z m 338 463 l 285 517 l 246 517 l 153 463 l 244 410 l 285 410 l 338 463 z m 411 107 l 411 410 l 364 460 l 318 410 l 318 107 l 364 57 l 411 107 z m 554 53 l 500 107 l 439 107 l 364 28 l 290 107 l 181 107 l 74 0 l 500 0 l 554 53 z m 411 -93 l 411 -17 l 318 -17 l 318 -93 l 364 -140 l 411 -93 z "},"%":{"ha":833,"x_min":0,"x_max":0,"o":"m 718 874 l 713 933 l 669 913 l 404 490 l 436 428 l 718 874 z m 333 699 l 333 917 l 281 864 l 281 731 l 333 699 z m 324 926 l 83 926 l 136 872 l 271 872 l 324 926 z m 760 236 l 760 454 l 706 400 l 706 267 l 760 236 z m 750 463 l 510 463 l 563 410 l 697 410 l 750 463 z m 128 731 l 128 864 l 74 917 l 74 699 l 128 731 z m 333 472 l 333 690 l 281 660 l 281 525 l 333 472 z m 553 267 l 553 400 l 500 454 l 500 236 l 553 267 z m 760 10 l 760 226 l 706 196 l 706 63 l 760 10 z m 324 463 l 271 517 l 136 517 l 83 463 l 324 463 z m 128 525 l 128 660 l 74 690 l 74 472 l 128 525 z m 750 0 l 697 53 l 563 53 l 510 0 l 750 0 z m 553 63 l 553 196 l 500 226 l 500 10 l 553 63 z m 431 421 l 365 428 l 115 31 l 115 -8 l 171 13 l 431 421 z "},"&":{"ha":843,"x_min":0,"x_max":0,"o":"m 468 926 l 218 926 l 156 863 l 199 819 l 361 819 l 468 926 z m 593 528 l 593 636 l 539 689 l 486 636 l 486 528 l 539 496 l 593 528 z m 768 463 l 715 517 l 635 517 l 556 463 l 635 410 l 715 410 l 768 463 z m 538 463 l 458 517 l 406 517 l 324 463 l 406 410 l 458 410 l 538 463 z m 593 139 l 593 392 l 539 424 l 486 392 l 486 125 l 532 79 l 593 139 z m 181 533 l 181 801 l 138 844 l 74 782 l 74 472 l 181 533 z m 181 125 l 181 392 l 74 454 l 74 125 l 128 72 l 181 125 z m 514 61 l 468 107 l 199 107 l 146 53 l 199 0 l 454 0 l 514 61 z "},"’":{"ha":375,"x_min":0,"x_max":0,"o":"m 300 926 l 178 926 l 74 665 l 160 578 l 300 926 z "},"(":{"ha":385,"x_min":0,"x_max":0,"o":"m 385 926 l 199 926 l 146 872 l 199 819 l 278 819 l 385 926 z m 181 533 l 181 801 l 128 854 l 74 801 l 74 472 l 181 533 z m 181 125 l 181 392 l 74 454 l 74 125 l 128 72 l 181 125 z m 385 0 l 278 107 l 199 107 l 146 53 l 199 0 l 385 0 z "},")":{"ha":385,"x_min":0,"x_max":0,"o":"m 239 872 l 185 926 l 0 926 l 107 819 l 185 819 l 239 872 z m 310 472 l 310 801 l 257 854 l 204 801 l 204 533 l 310 472 z m 310 125 l 310 454 l 204 392 l 204 125 l 257 72 l 310 125 z m 239 53 l 185 107 l 107 107 l 0 0 l 185 0 l 239 53 z "},"*":{"ha":621,"x_min":0,"x_max":0,"o":"m 547 753 l 499 778 l 357 732 l 318 679 l 381 658 l 522 704 l 547 753 z m 349 749 l 349 897 l 310 935 l 272 897 l 272 749 l 310 696 l 349 749 z m 468 522 l 381 643 l 318 663 l 318 597 l 406 476 l 460 468 l 468 522 z m 301 679 l 264 732 l 122 778 l 74 753 l 99 704 l 240 658 l 301 679 z m 301 597 l 301 663 l 240 643 l 153 522 l 161 468 l 214 476 l 301 597 z "},",":{"ha":375,"x_min":0,"x_max":0,"o":"m 300 197 l 178 197 l 74 -64 l 160 -151 l 300 197 z "},"-":{"ha":425,"x_min":0,"x_max":0,"o":"m 425 463 l 324 517 l 99 517 l 0 463 l 99 404 l 324 404 l 425 463 z "},".":{"ha":254,"x_min":0,"x_max":0,"o":"m 181 0 l 181 222 l 74 183 l 74 24 l 181 0 z "},"/":{"ha":901,"x_min":0,"x_max":0,"o":"m 828 933 l 821 1007 l 742 969 l 425 475 l 475 375 l 828 933 z m 469 367 l 364 378 l 74 -82 l 74 -171 l 144 -144 l 469 367 z "},":":{"ha":254,"x_min":0,"x_max":0,"o":"m 181 336 l 181 558 l 74 521 l 74 361 l 181 336 z m 181 0 l 181 222 l 74 183 l 74 24 l 181 0 z "},";":{"ha":313,"x_min":0,"x_max":0,"o":"m 238 336 l 238 558 l 132 521 l 132 361 l 238 336 z m 238 213 l 118 183 l 38 -81 l 124 -158 l 238 213 z "},"?":{"ha":611,"x_min":0,"x_max":0,"o":"m 538 474 l 538 907 l 431 801 l 431 535 l 538 474 z m 518 926 l 38 926 l 143 819 l 413 819 l 518 926 z m 501 463 l 413 517 l 226 517 l 333 410 l 399 410 l 501 463 z m 333 264 l 333 379 l 226 486 l 226 371 l 333 264 z m 333 0 l 333 235 l 226 182 l 226 53 l 333 0 z "},"A":{"ha":667,"x_min":0,"x_max":0,"o":"m 593 472 l 593 907 l 486 801 l 486 533 l 593 472 z m 574 926 l 93 926 l 199 819 l 468 819 l 574 926 z m 181 533 l 181 801 l 74 907 l 74 472 l 181 533 z m 538 463 l 444 517 l 222 517 l 129 463 l 222 410 l 444 410 l 538 463 z m 593 0 l 593 454 l 486 392 l 486 107 l 593 0 z m 181 107 l 181 392 l 74 454 l 74 0 l 181 107 z "},"B":{"ha":667,"x_min":0,"x_max":0,"o":"m 593 525 l 593 801 l 539 854 l 486 801 l 486 533 l 539 503 l 593 525 z m 521 872 l 468 926 l 93 926 l 199 819 l 468 819 l 521 872 z m 181 533 l 181 801 l 74 907 l 74 472 l 181 533 z m 556 463 l 468 515 l 199 515 l 108 463 l 199 408 l 468 408 l 556 463 z m 593 125 l 593 400 l 539 424 l 486 392 l 486 125 l 539 72 l 593 125 z m 181 125 l 181 390 l 74 454 l 74 18 l 181 125 z m 521 53 l 468 107 l 199 107 l 93 0 l 468 0 l 521 53 z "},"C":{"ha":601,"x_min":0,"x_max":0,"o":"m 574 926 l 208 926 l 153 867 l 199 819 l 468 819 l 574 926 z m 181 533 l 181 801 l 121 847 l 74 792 l 74 472 l 181 533 z m 574 0 l 468 107 l 199 107 l 146 53 l 199 0 l 574 0 z m 181 125 l 181 392 l 74 454 l 74 125 l 128 72 l 181 125 z "},"D":{"ha":667,"x_min":0,"x_max":0,"o":"m 593 472 l 593 801 l 539 854 l 486 801 l 486 533 l 593 472 z m 521 872 l 468 926 l 93 926 l 199 819 l 468 819 l 521 872 z m 181 533 l 181 801 l 74 907 l 74 472 l 181 533 z m 593 125 l 593 454 l 486 392 l 486 125 l 539 72 l 593 125 z m 181 125 l 181 392 l 74 454 l 74 18 l 181 125 z m 521 53 l 468 107 l 199 107 l 93 0 l 468 0 l 521 53 z "},"E":{"ha":611,"x_min":0,"x_max":0,"o":"m 574 926 l 93 926 l 199 819 l 468 819 l 574 926 z m 181 533 l 181 801 l 74 907 l 74 472 l 181 533 z m 546 463 l 454 517 l 213 517 l 121 463 l 213 410 l 454 410 l 546 463 z m 574 0 l 468 107 l 199 107 l 93 0 l 574 0 z m 181 125 l 181 392 l 74 454 l 74 18 l 181 125 z "},"F":{"ha":611,"x_min":0,"x_max":0,"o":"m 574 926 l 93 926 l 199 819 l 468 819 l 574 926 z m 181 533 l 181 801 l 74 907 l 74 472 l 181 533 z m 546 463 l 454 517 l 213 517 l 121 463 l 213 410 l 454 410 l 546 463 z m 181 107 l 181 392 l 74 454 l 74 0 l 181 107 z "},"G":{"ha":649,"x_min":0,"x_max":0,"o":"m 482 926 l 199 926 l 146 872 l 199 819 l 375 819 l 482 926 z m 546 463 l 454 517 l 407 517 l 315 463 l 407 410 l 454 410 l 546 463 z m 593 144 l 593 454 l 486 392 l 486 125 l 529 82 l 593 144 z m 181 533 l 181 801 l 128 854 l 74 801 l 74 472 l 181 533 z m 181 125 l 181 392 l 74 454 l 74 135 l 132 76 l 181 125 z m 511 63 l 468 107 l 199 107 l 150 58 l 208 0 l 449 0 l 511 63 z "},"H":{"ha":667,"x_min":0,"x_max":0,"o":"m 593 472 l 593 926 l 486 819 l 486 533 l 593 472 z m 181 533 l 181 819 l 74 926 l 74 472 l 181 533 z m 538 463 l 444 517 l 222 517 l 129 463 l 222 410 l 444 410 l 538 463 z m 593 0 l 593 454 l 486 392 l 486 107 l 593 0 z m 181 107 l 181 392 l 74 454 l 74 0 l 181 107 z "},"I":{"ha":254,"x_min":0,"x_max":0,"o":"m 181 472 l 181 926 l 74 819 l 74 533 l 181 472 z m 181 0 l 181 454 l 74 392 l 74 107 l 181 0 z "},"J":{"ha":565,"x_min":0,"x_max":0,"o":"m 490 472 l 490 926 l 385 819 l 385 533 l 490 472 z m 490 18 l 490 454 l 385 392 l 385 125 l 490 18 z m 472 0 l 365 107 l 163 107 l 56 0 l 472 0 z m 143 125 l 143 217 l 38 260 l 38 18 l 143 125 z "},"K":{"ha":671,"x_min":0,"x_max":0,"o":"m 606 808 l 606 889 l 525 889 l 213 615 l 213 533 l 293 533 l 606 808 z m 181 533 l 181 819 l 74 926 l 74 472 l 181 533 z m 546 463 l 454 517 l 213 517 l 121 463 l 213 410 l 454 410 l 546 463 z m 593 0 l 593 454 l 486 392 l 486 107 l 593 0 z m 181 107 l 181 392 l 74 454 l 74 0 l 181 107 z "},"L":{"ha":629,"x_min":0,"x_max":0,"o":"m 181 533 l 181 819 l 74 926 l 74 472 l 181 533 z m 593 18 l 593 232 l 486 169 l 486 125 l 593 18 z m 574 0 l 468 107 l 199 107 l 93 0 l 574 0 z m 181 125 l 181 392 l 74 454 l 74 18 l 181 125 z "},"M":{"ha":1074,"x_min":0,"x_max":0,"o":"m 928 872 l 875 926 l 546 926 l 608 819 l 875 819 l 928 872 z m 1000 472 l 1000 801 l 947 854 l 893 801 l 893 533 l 1000 472 z m 528 926 l 199 926 l 146 872 l 199 819 l 467 819 l 528 926 z m 590 546 l 590 788 l 538 879 l 483 788 l 483 546 l 538 454 l 590 546 z m 1000 0 l 1000 454 l 893 392 l 893 107 l 1000 0 z m 181 533 l 181 801 l 128 854 l 74 801 l 74 472 l 181 533 z m 590 92 l 590 343 l 538 435 l 483 343 l 483 92 l 538 0 l 590 92 z m 181 107 l 181 392 l 74 454 l 74 0 l 181 107 z "},"N":{"ha":667,"x_min":0,"x_max":0,"o":"m 521 872 l 468 926 l 199 926 l 146 872 l 199 819 l 468 819 l 521 872 z m 593 472 l 593 801 l 539 854 l 486 801 l 486 533 l 593 472 z m 181 533 l 181 801 l 128 854 l 74 801 l 74 472 l 181 533 z m 593 0 l 593 454 l 486 392 l 486 107 l 593 0 z m 181 107 l 181 392 l 74 454 l 74 0 l 181 107 z "},"O":{"ha":667,"x_min":0,"x_max":0,"o":"m 521 872 l 468 926 l 199 926 l 146 872 l 199 819 l 468 819 l 521 872 z m 593 472 l 593 801 l 539 854 l 486 801 l 486 533 l 593 472 z m 593 125 l 593 454 l 486 392 l 486 125 l 539 72 l 593 125 z m 181 533 l 181 801 l 128 854 l 74 801 l 74 472 l 181 533 z m 181 125 l 181 392 l 74 454 l 74 125 l 128 72 l 181 125 z m 521 53 l 468 107 l 199 107 l 146 53 l 199 0 l 468 0 l 521 53 z "},"P":{"ha":667,"x_min":0,"x_max":0,"o":"m 593 472 l 593 801 l 539 854 l 486 801 l 486 533 l 593 472 z m 521 872 l 468 926 l 93 926 l 199 819 l 468 819 l 521 872 z m 181 533 l 181 801 l 74 907 l 74 472 l 181 533 z m 546 463 l 454 517 l 213 517 l 121 463 l 213 410 l 454 410 l 546 463 z m 181 107 l 181 392 l 74 454 l 74 0 l 181 107 z "},"Q":{"ha":668,"x_min":0,"x_max":0,"o":"m 521 872 l 468 926 l 199 926 l 146 872 l 199 819 l 468 819 l 521 872 z m 593 472 l 593 801 l 539 854 l 486 801 l 486 533 l 593 472 z m 593 125 l 593 454 l 486 392 l 486 125 l 539 72 l 593 125 z m 181 533 l 181 801 l 128 854 l 74 801 l 74 472 l 181 533 z m 594 -19 l 468 107 l 332 107 l 592 -153 l 594 -19 z m 181 125 l 181 392 l 74 454 l 74 125 l 128 72 l 181 125 z m 396 0 l 290 107 l 201 107 l 149 53 l 201 0 l 396 0 z "},"R":{"ha":710,"x_min":0,"x_max":0,"o":"m 593 557 l 593 801 l 539 854 l 486 801 l 486 533 l 539 503 l 593 557 z m 521 872 l 468 926 l 93 926 l 199 819 l 468 819 l 521 872 z m 181 533 l 181 801 l 74 907 l 74 472 l 181 533 z m 546 463 l 454 517 l 213 517 l 121 463 l 213 410 l 454 410 l 546 463 z m 664 0 l 499 388 l 376 388 l 486 117 l 664 0 z m 181 107 l 181 392 l 74 454 l 74 0 l 181 107 z "},"S":{"ha":629,"x_min":0,"x_max":0,"o":"m 574 926 l 181 926 l 128 872 l 181 819 l 468 819 l 574 926 z m 574 125 l 574 454 l 468 392 l 468 125 l 521 72 l 574 125 z m 528 463 l 436 517 l 194 517 l 101 463 l 194 410 l 436 410 l 528 463 z m 163 533 l 163 801 l 108 854 l 56 801 l 56 472 l 163 533 z m 503 53 l 449 107 l 163 107 l 56 0 l 449 0 l 503 53 z "},"T":{"ha":676,"x_min":0,"x_max":0,"o":"m 676 926 l 347 926 l 408 819 l 569 819 l 676 926 z m 329 926 l 0 926 l 107 819 l 267 819 l 329 926 z m 392 546 l 392 788 l 338 879 l 285 788 l 285 546 l 338 454 l 392 546 z m 392 92 l 392 353 l 338 444 l 285 353 l 285 92 l 338 0 l 392 92 z "},"U":{"ha":667,"x_min":0,"x_max":0,"o":"m 593 472 l 593 926 l 486 819 l 486 533 l 593 472 z m 181 533 l 181 819 l 74 926 l 74 472 l 181 533 z m 593 125 l 593 454 l 486 392 l 486 125 l 539 72 l 593 125 z m 181 125 l 181 392 l 74 454 l 74 125 l 128 72 l 181 125 z m 521 53 l 468 107 l 199 107 l 146 53 l 199 0 l 468 0 l 521 53 z "},"V":{"ha":647,"x_min":0,"x_max":0,"o":"m 592 472 l 592 926 l 485 819 l 485 533 l 592 472 z m 163 533 l 163 819 l 56 926 l 56 472 l 163 533 z m 592 454 l 469 419 l 342 118 l 415 25 l 592 454 z m 318 124 l 183 425 l 56 454 l 242 18 l 318 124 z m 401 0 l 329 96 l 261 0 l 401 0 z "},"W":{"ha":1074,"x_min":0,"x_max":0,"o":"m 1000 472 l 1000 926 l 893 819 l 893 533 l 1000 472 z m 590 583 l 590 833 l 538 926 l 483 833 l 483 583 l 538 490 l 590 583 z m 1000 125 l 1000 454 l 893 392 l 893 125 l 947 72 l 1000 125 z m 181 533 l 181 819 l 74 926 l 74 472 l 181 533 z m 590 139 l 590 381 l 538 472 l 483 381 l 483 139 l 538 46 l 590 139 z m 928 53 l 875 107 l 608 107 l 546 0 l 875 0 l 928 53 z m 181 125 l 181 392 l 74 454 l 74 125 l 128 72 l 181 125 z m 528 0 l 467 107 l 199 107 l 146 53 l 199 0 l 528 0 z "},"X":{"ha":626,"x_min":0,"x_max":0,"o":"m 581 846 l 581 926 l 508 926 l 331 618 l 331 485 l 374 485 l 581 846 z m 296 485 l 296 619 l 118 926 l 46 926 l 46 846 l 254 485 l 296 485 z m 581 0 l 581 93 l 374 436 l 331 436 l 331 314 l 514 0 l 581 0 z m 296 315 l 296 436 l 254 436 l 46 93 l 46 0 l 118 0 l 296 315 z "},"Y":{"ha":629,"x_min":0,"x_max":0,"o":"m 574 490 l 574 926 l 468 819 l 468 533 l 558 481 l 574 490 z m 163 533 l 163 819 l 56 926 l 56 490 l 72 481 l 163 533 z m 528 463 l 436 517 l 194 517 l 101 463 l 194 410 l 436 410 l 528 463 z m 368 53 l 368 382 l 261 382 l 261 53 l 315 0 l 368 53 z "},"Z":{"ha":581,"x_min":0,"x_max":0,"o":"m 518 926 l 10 926 l 118 819 l 413 819 l 518 926 z m 542 775 l 542 917 l 429 804 l 272 551 l 344 460 l 542 775 z m 338 447 l 204 447 l 28 167 l 28 21 l 136 126 l 338 447 z m 581 0 l 472 107 l 163 107 l 57 0 l 581 0 z "},"a":{"ha":667,"x_min":0,"x_max":0,"o":"m 593 472 l 593 907 l 486 801 l 486 533 l 593 472 z m 574 926 l 93 926 l 199 819 l 468 819 l 574 926 z m 181 533 l 181 801 l 74 907 l 74 472 l 181 533 z m 538 463 l 444 517 l 222 517 l 129 463 l 222 410 l 444 410 l 538 463 z m 593 0 l 593 454 l 486 392 l 486 107 l 593 0 z m 181 107 l 181 392 l 74 454 l 74 0 l 181 107 z "},"b":{"ha":667,"x_min":0,"x_max":0,"o":"m 593 525 l 593 801 l 539 854 l 486 801 l 486 533 l 539 503 l 593 525 z m 521 872 l 468 926 l 93 926 l 199 819 l 468 819 l 521 872 z m 181 533 l 181 801 l 74 907 l 74 472 l 181 533 z m 556 463 l 468 515 l 199 515 l 108 463 l 199 408 l 468 408 l 556 463 z m 593 125 l 593 400 l 539 424 l 486 392 l 486 125 l 539 72 l 593 125 z m 181 125 l 181 390 l 74 454 l 74 18 l 181 125 z m 521 53 l 468 107 l 199 107 l 93 0 l 468 0 l 521 53 z "},"c":{"ha":601,"x_min":0,"x_max":0,"o":"m 574 926 l 208 926 l 153 867 l 199 819 l 468 819 l 574 926 z m 181 533 l 181 801 l 121 847 l 74 792 l 74 472 l 181 533 z m 574 0 l 468 107 l 199 107 l 146 53 l 199 0 l 574 0 z m 181 125 l 181 392 l 74 454 l 74 125 l 128 72 l 181 125 z "},"d":{"ha":667,"x_min":0,"x_max":0,"o":"m 593 472 l 593 801 l 539 854 l 486 801 l 486 533 l 593 472 z m 521 872 l 468 926 l 93 926 l 199 819 l 468 819 l 521 872 z m 181 533 l 181 801 l 74 907 l 74 472 l 181 533 z m 593 125 l 593 454 l 486 392 l 486 125 l 539 72 l 593 125 z m 181 125 l 181 392 l 74 454 l 74 18 l 181 125 z m 521 53 l 468 107 l 199 107 l 93 0 l 468 0 l 521 53 z "},"e":{"ha":611,"x_min":0,"x_max":0,"o":"m 574 926 l 93 926 l 199 819 l 468 819 l 574 926 z m 181 533 l 181 801 l 74 907 l 74 472 l 181 533 z m 546 463 l 454 517 l 213 517 l 121 463 l 213 410 l 454 410 l 546 463 z m 574 0 l 468 107 l 199 107 l 93 0 l 574 0 z m 181 125 l 181 392 l 74 454 l 74 18 l 181 125 z "},"f":{"ha":611,"x_min":0,"x_max":0,"o":"m 574 926 l 93 926 l 199 819 l 468 819 l 574 926 z m 181 533 l 181 801 l 74 907 l 74 472 l 181 533 z m 546 463 l 454 517 l 213 517 l 121 463 l 213 410 l 454 410 l 546 463 z m 181 107 l 181 392 l 74 454 l 74 0 l 181 107 z "},"g":{"ha":649,"x_min":0,"x_max":0,"o":"m 482 926 l 199 926 l 146 872 l 199 819 l 375 819 l 482 926 z m 546 463 l 454 517 l 407 517 l 315 463 l 407 410 l 454 410 l 546 463 z m 593 144 l 593 454 l 486 392 l 486 125 l 529 82 l 593 144 z m 181 533 l 181 801 l 128 854 l 74 801 l 74 472 l 181 533 z m 181 125 l 181 392 l 74 454 l 74 135 l 132 76 l 181 125 z m 511 63 l 468 107 l 199 107 l 150 58 l 208 0 l 449 0 l 511 63 z "},"h":{"ha":667,"x_min":0,"x_max":0,"o":"m 593 472 l 593 926 l 486 819 l 486 533 l 593 472 z m 181 533 l 181 819 l 74 926 l 74 472 l 181 533 z m 538 463 l 444 517 l 222 517 l 129 463 l 222 410 l 444 410 l 538 463 z m 593 0 l 593 454 l 486 392 l 486 107 l 593 0 z m 181 107 l 181 392 l 74 454 l 74 0 l 181 107 z "},"i":{"ha":254,"x_min":0,"x_max":0,"o":"m 181 472 l 181 926 l 74 819 l 74 533 l 181 472 z m 181 0 l 181 454 l 74 392 l 74 107 l 181 0 z "},"j":{"ha":565,"x_min":0,"x_max":0,"o":"m 490 472 l 490 926 l 385 819 l 385 533 l 490 472 z m 490 18 l 490 454 l 385 392 l 385 125 l 490 18 z m 472 0 l 365 107 l 163 107 l 56 0 l 472 0 z m 143 125 l 143 217 l 38 260 l 38 18 l 143 125 z "},"k":{"ha":671,"x_min":0,"x_max":0,"o":"m 606 808 l 606 889 l 525 889 l 213 615 l 213 533 l 293 533 l 606 808 z m 181 533 l 181 819 l 74 926 l 74 472 l 181 533 z m 546 463 l 454 517 l 213 517 l 121 463 l 213 410 l 454 410 l 546 463 z m 593 0 l 593 454 l 486 392 l 486 107 l 593 0 z m 181 107 l 181 392 l 74 454 l 74 0 l 181 107 z "},"l":{"ha":629,"x_min":0,"x_max":0,"o":"m 181 533 l 181 819 l 74 926 l 74 472 l 181 533 z m 593 18 l 593 232 l 486 169 l 486 125 l 593 18 z m 574 0 l 468 107 l 199 107 l 93 0 l 574 0 z m 181 125 l 181 392 l 74 454 l 74 18 l 181 125 z "},"m":{"ha":1074,"x_min":0,"x_max":0,"o":"m 928 872 l 875 926 l 546 926 l 608 819 l 875 819 l 928 872 z m 1000 472 l 1000 801 l 947 854 l 893 801 l 893 533 l 1000 472 z m 528 926 l 199 926 l 146 872 l 199 819 l 467 819 l 528 926 z m 590 546 l 590 788 l 538 879 l 483 788 l 483 546 l 538 454 l 590 546 z m 1000 0 l 1000 454 l 893 392 l 893 107 l 1000 0 z m 181 533 l 181 801 l 128 854 l 74 801 l 74 472 l 181 533 z m 590 92 l 590 343 l 538 435 l 483 343 l 483 92 l 538 0 l 590 92 z m 181 107 l 181 392 l 74 454 l 74 0 l 181 107 z "},"n":{"ha":667,"x_min":0,"x_max":0,"o":"m 521 872 l 468 926 l 199 926 l 146 872 l 199 819 l 468 819 l 521 872 z m 593 472 l 593 801 l 539 854 l 486 801 l 486 533 l 593 472 z m 181 533 l 181 801 l 128 854 l 74 801 l 74 472 l 181 533 z m 593 0 l 593 454 l 486 392 l 486 107 l 593 0 z m 181 107 l 181 392 l 74 454 l 74 0 l 181 107 z "},"o":{"ha":667,"x_min":0,"x_max":0,"o":"m 521 872 l 468 926 l 199 926 l 146 872 l 199 819 l 468 819 l 521 872 z m 593 472 l 593 801 l 539 854 l 486 801 l 486 533 l 593 472 z m 593 125 l 593 454 l 486 392 l 486 125 l 539 72 l 593 125 z m 181 533 l 181 801 l 128 854 l 74 801 l 74 472 l 181 533 z m 181 125 l 181 392 l 74 454 l 74 125 l 128 72 l 181 125 z m 521 53 l 468 107 l 199 107 l 146 53 l 199 0 l 468 0 l 521 53 z "},"p":{"ha":667,"x_min":0,"x_max":0,"o":"m 593 472 l 593 801 l 539 854 l 486 801 l 486 533 l 593 472 z m 521 872 l 468 926 l 93 926 l 199 819 l 468 819 l 521 872 z m 181 533 l 181 801 l 74 907 l 74 472 l 181 533 z m 546 463 l 454 517 l 213 517 l 121 463 l 213 410 l 454 410 l 546 463 z m 181 107 l 181 392 l 74 454 l 74 0 l 181 107 z "},"q":{"ha":668,"x_min":0,"x_max":0,"o":"m 521 872 l 468 926 l 199 926 l 146 872 l 199 819 l 468 819 l 521 872 z m 593 472 l 593 801 l 539 854 l 486 801 l 486 533 l 593 472 z m 593 125 l 593 454 l 486 392 l 486 125 l 539 72 l 593 125 z m 181 533 l 181 801 l 128 854 l 74 801 l 74 472 l 181 533 z m 594 -19 l 468 107 l 332 107 l 592 -153 l 594 -19 z m 181 125 l 181 392 l 74 454 l 74 125 l 128 72 l 181 125 z m 396 0 l 290 107 l 201 107 l 149 53 l 201 0 l 396 0 z "},"r":{"ha":710,"x_min":0,"x_max":0,"o":"m 593 557 l 593 801 l 539 854 l 486 801 l 486 533 l 539 503 l 593 557 z m 521 872 l 468 926 l 93 926 l 199 819 l 468 819 l 521 872 z m 181 533 l 181 801 l 74 907 l 74 472 l 181 533 z m 546 463 l 454 517 l 213 517 l 121 463 l 213 410 l 454 410 l 546 463 z m 664 0 l 499 388 l 376 388 l 486 117 l 664 0 z m 181 107 l 181 392 l 74 454 l 74 0 l 181 107 z "},"s":{"ha":629,"x_min":0,"x_max":0,"o":"m 574 926 l 181 926 l 128 872 l 181 819 l 468 819 l 574 926 z m 574 125 l 574 454 l 468 392 l 468 125 l 521 72 l 574 125 z m 528 463 l 436 517 l 194 517 l 101 463 l 194 410 l 436 410 l 528 463 z m 163 533 l 163 801 l 108 854 l 56 801 l 56 472 l 163 533 z m 503 53 l 449 107 l 163 107 l 56 0 l 449 0 l 503 53 z "},"t":{"ha":676,"x_min":0,"x_max":0,"o":"m 676 926 l 347 926 l 408 819 l 569 819 l 676 926 z m 329 926 l 0 926 l 107 819 l 267 819 l 329 926 z m 392 546 l 392 788 l 338 879 l 285 788 l 285 546 l 338 454 l 392 546 z m 392 92 l 392 353 l 338 444 l 285 353 l 285 92 l 338 0 l 392 92 z "},"u":{"ha":667,"x_min":0,"x_max":0,"o":"m 593 472 l 593 926 l 486 819 l 486 533 l 593 472 z m 181 533 l 181 819 l 74 926 l 74 472 l 181 533 z m 593 125 l 593 454 l 486 392 l 486 125 l 539 72 l 593 125 z m 181 125 l 181 392 l 74 454 l 74 125 l 128 72 l 181 125 z m 521 53 l 468 107 l 199 107 l 146 53 l 199 0 l 468 0 l 521 53 z "},"v":{"ha":647,"x_min":0,"x_max":0,"o":"m 592 472 l 592 926 l 485 819 l 485 533 l 592 472 z m 163 533 l 163 819 l 56 926 l 56 472 l 163 533 z m 592 454 l 469 419 l 342 118 l 415 25 l 592 454 z m 318 124 l 183 425 l 56 454 l 242 18 l 318 124 z m 401 0 l 329 96 l 261 0 l 401 0 z "},"w":{"ha":1074,"x_min":0,"x_max":0,"o":"m 1000 472 l 1000 926 l 893 819 l 893 533 l 1000 472 z m 590 583 l 590 833 l 538 926 l 483 833 l 483 583 l 538 490 l 590 583 z m 1000 125 l 1000 454 l 893 392 l 893 125 l 947 72 l 1000 125 z m 181 533 l 181 819 l 74 926 l 74 472 l 181 533 z m 590 139 l 590 381 l 538 472 l 483 381 l 483 139 l 538 46 l 590 139 z m 928 53 l 875 107 l 608 107 l 546 0 l 875 0 l 928 53 z m 181 125 l 181 392 l 74 454 l 74 125 l 128 72 l 181 125 z m 528 0 l 467 107 l 199 107 l 146 53 l 199 0 l 528 0 z "},"x":{"ha":626,"x_min":0,"x_max":0,"o":"m 581 846 l 581 926 l 508 926 l 331 618 l 331 485 l 374 485 l 581 846 z m 296 485 l 296 619 l 118 926 l 46 926 l 46 846 l 254 485 l 296 485 z m 581 0 l 581 93 l 374 436 l 331 436 l 331 314 l 514 0 l 581 0 z m 296 315 l 296 436 l 254 436 l 46 93 l 46 0 l 118 0 l 296 315 z "},"y":{"ha":629,"x_min":0,"x_max":0,"o":"m 574 490 l 574 926 l 468 819 l 468 533 l 558 481 l 574 490 z m 163 533 l 163 819 l 56 926 l 56 490 l 72 481 l 163 533 z m 528 463 l 436 517 l 194 517 l 101 463 l 194 410 l 436 410 l 528 463 z m 368 53 l 368 382 l 261 382 l 261 53 l 315 0 l 368 53 z "},"z":{"ha":581,"x_min":0,"x_max":0,"o":"m 518 926 l 10 926 l 118 819 l 413 819 l 518 926 z m 542 775 l 542 917 l 429 804 l 272 551 l 344 460 l 542 775 z m 338 447 l 204 447 l 28 167 l 28 21 l 136 126 l 338 447 z m 581 0 l 472 107 l 163 107 l 57 0 l 581 0 z "},"¡":{"ha":292,"x_min":0,"x_max":0,"o":"m 181 751 l 181 910 l 74 940 l 74 713 l 181 751 z m 181 68 l 181 518 l 74 611 l 74 -36 l 181 68 z "},"¢":{"ha":611,"x_min":0,"x_max":0,"o":"m 413 857 l 413 931 l 365 983 l 319 931 l 319 857 l 413 857 z m 607 833 l 242 833 l 186 774 l 232 726 l 292 726 l 365 806 l 439 726 l 501 726 l 607 833 z m 413 199 l 413 726 l 365 778 l 319 726 l 319 199 l 365 150 l 413 199 z m 214 533 l 214 708 l 154 756 l 107 699 l 107 472 l 214 533 z m 607 93 l 501 199 l 439 199 l 365 121 l 292 199 l 232 199 l 179 146 l 232 93 l 607 93 z m 214 218 l 214 392 l 107 454 l 107 218 l 161 164 l 214 218 z m 413 0 l 413 76 l 319 76 l 319 0 l 365 -47 l 413 0 z "},"£":{"ha":667,"x_min":0,"x_max":0,"o":"m 603 926 l 150 926 l 256 819 l 497 819 l 603 926 z m 238 533 l 238 801 l 131 907 l 131 525 l 185 503 l 238 533 z m 474 463 l 382 517 l 260 517 l 186 463 l 260 410 l 382 410 l 474 463 z m 172 463 l 99 517 l 43 517 l -11 463 l 43 410 l 99 410 l 172 463 z m 631 0 l 525 107 l 256 107 l 150 0 l 631 0 z m 238 125 l 238 392 l 185 424 l 131 400 l 131 18 l 238 125 z "},"“":{"ha":546,"x_min":0,"x_max":0,"o":"m 472 881 l 396 960 l 268 646 l 378 646 l 472 881 z m 278 881 l 201 960 l 74 646 l 183 646 l 278 881 z "},"«":{"ha":603,"x_min":0,"x_max":0,"o":"m 528 676 l 408 676 l 278 449 l 353 356 l 528 676 z m 325 676 l 204 676 l 74 449 l 150 356 l 325 676 z m 528 60 l 363 346 l 283 247 l 406 60 l 528 60 z m 325 60 l 158 346 l 81 247 l 201 60 l 325 60 z "},"·":{"ha":107,"x_min":0,"x_max":0,"o":"m 107 343 l 107 564 l 0 526 l 0 367 l 107 343 z "},"„":{"ha":546,"x_min":0,"x_max":0,"o":"m 472 139 l 363 139 l 268 -96 l 346 -175 l 472 139 z m 278 139 l 168 139 l 74 -96 l 151 -175 l 278 139 z "},"”":{"ha":546,"x_min":0,"x_max":0,"o":"m 472 926 l 363 926 l 268 692 l 346 613 l 472 926 z m 278 926 l 168 926 l 74 692 l 151 613 l 278 926 z "},"»":{"ha":603,"x_min":0,"x_max":0,"o":"m 522 489 l 400 676 l 278 676 l 444 392 l 522 489 z m 319 489 l 197 676 l 74 676 l 240 392 l 319 489 z m 528 288 l 453 381 l 278 60 l 397 60 l 528 288 z m 325 288 l 249 381 l 74 60 l 194 60 l 325 288 z "},"¿":{"ha":611,"x_min":0,"x_max":0,"o":"m 385 744 l 385 872 l 278 926 l 278 692 l 385 744 z m 385 440 l 385 556 l 278 663 l 278 546 l 385 440 z m 385 410 l 278 517 l 213 517 l 110 463 l 199 410 l 385 410 z m 574 0 l 468 107 l 199 107 l 93 0 l 574 0 z m 181 125 l 181 392 l 74 453 l 74 18 l 181 125 z "},"—":{"ha":926,"x_min":0,"x_max":0,"o":"m 926 463 l 824 517 l 99 517 l 0 463 l 99 404 l 824 404 l 926 463 z "},"Æ":{"ha":1024,"x_min":0,"x_max":0,"o":"m 986 926 l 567 926 l 611 819 l 879 819 l 986 926 z m 593 533 l 593 801 l 539 907 l 486 801 l 486 525 l 539 503 l 593 533 z m 968 463 l 875 517 l 615 517 l 542 463 l 615 410 l 875 410 l 968 463 z m 513 926 l 93 926 l 199 819 l 468 819 l 513 926 z m 181 533 l 181 801 l 74 907 l 74 472 l 181 533 z m 986 0 l 879 107 l 611 107 l 504 0 l 986 0 z m 528 463 l 454 517 l 213 517 l 121 463 l 213 410 l 454 410 l 528 463 z m 593 125 l 593 392 l 539 424 l 486 400 l 486 18 l 593 125 z m 181 107 l 181 392 l 74 454 l 74 0 l 181 107 z "},"Ø":{"ha":667,"x_min":0,"x_max":0,"o":"m 686 1007 l 676 1083 l 597 1047 l 528 918 l 597 851 l 686 1007 z m 521 872 l 468 926 l 199 926 l 146 872 l 199 819 l 468 819 l 521 872 z m 593 472 l 593 801 l 539 854 l 486 801 l 486 533 l 593 472 z m 593 125 l 593 454 l 486 392 l 486 125 l 539 72 l 593 125 z m 461 613 l 461 792 l 201 331 l 201 140 l 461 613 z m 181 533 l 181 801 l 128 854 l 74 801 l 74 472 l 181 533 z m 181 125 l 181 392 l 74 454 l 74 125 l 128 72 l 181 125 z m 521 53 l 468 107 l 199 107 l 146 53 l 199 0 l 468 0 l 521 53 z m 135 15 l 67 85 l -19 -65 l -8 -147 l 63 -118 l 135 15 z "},"Œ":{"ha":1024,"x_min":0,"x_max":0,"o":"m 986 926 l 567 926 l 621 819 l 879 819 l 986 926 z m 593 533 l 593 801 l 539 907 l 486 801 l 486 472 l 593 533 z m 968 463 l 875 517 l 615 517 l 524 463 l 615 410 l 875 410 l 968 463 z m 511 926 l 199 926 l 146 872 l 199 819 l 458 819 l 511 926 z m 986 0 l 879 107 l 621 107 l 567 0 l 986 0 z m 181 533 l 181 801 l 128 854 l 74 801 l 74 472 l 181 533 z m 593 125 l 593 392 l 486 454 l 486 125 l 539 18 l 593 125 z m 181 125 l 181 392 l 74 454 l 74 125 l 128 72 l 181 125 z m 511 0 l 458 107 l 199 107 l 146 53 l 199 0 l 511 0 z "},"æ":{"ha":1024,"x_min":0,"x_max":0,"o":"m 986 926 l 567 926 l 611 819 l 879 819 l 986 926 z m 593 533 l 593 801 l 539 907 l 486 801 l 486 525 l 539 503 l 593 533 z m 968 463 l 875 517 l 615 517 l 542 463 l 615 410 l 875 410 l 968 463 z m 513 926 l 93 926 l 199 819 l 468 819 l 513 926 z m 181 533 l 181 801 l 74 907 l 74 472 l 181 533 z m 986 0 l 879 107 l 611 107 l 504 0 l 986 0 z m 528 463 l 454 517 l 213 517 l 121 463 l 213 410 l 454 410 l 528 463 z m 593 125 l 593 392 l 539 424 l 486 400 l 486 18 l 593 125 z m 181 107 l 181 392 l 74 454 l 74 0 l 181 107 z "},"ı":{"ha":254,"x_min":0,"x_max":0,"o":"m 181 472 l 181 926 l 74 819 l 74 533 l 181 472 z m 181 0 l 181 454 l 74 392 l 74 107 l 181 0 z "},"ø":{"ha":667,"x_min":0,"x_max":0,"o":"m 686 1007 l 676 1083 l 597 1047 l 528 918 l 597 851 l 686 1007 z m 521 872 l 468 926 l 199 926 l 146 872 l 199 819 l 468 819 l 521 872 z m 593 472 l 593 801 l 539 854 l 486 801 l 486 533 l 593 472 z m 593 125 l 593 454 l 486 392 l 486 125 l 539 72 l 593 125 z m 461 613 l 461 792 l 201 331 l 201 140 l 461 613 z m 181 533 l 181 801 l 128 854 l 74 801 l 74 472 l 181 533 z m 181 125 l 181 392 l 74 454 l 74 125 l 128 72 l 181 125 z m 521 53 l 468 107 l 199 107 l 146 53 l 199 0 l 468 0 l 521 53 z m 135 15 l 67 85 l -19 -65 l -8 -147 l 63 -118 l 135 15 z "},"œ":{"ha":1024,"x_min":0,"x_max":0,"o":"m 986 926 l 567 926 l 621 819 l 879 819 l 986 926 z m 593 533 l 593 801 l 539 907 l 486 801 l 486 472 l 593 533 z m 968 463 l 875 517 l 615 517 l 524 463 l 615 410 l 875 410 l 968 463 z m 511 926 l 199 926 l 146 872 l 199 819 l 458 819 l 511 926 z m 986 0 l 879 107 l 621 107 l 567 0 l 986 0 z m 181 533 l 181 801 l 128 854 l 74 801 l 74 472 l 181 533 z m 593 125 l 593 392 l 486 454 l 486 125 l 539 18 l 593 125 z m 181 125 l 181 392 l 74 454 l 74 125 l 128 72 l 181 125 z m 511 0 l 458 107 l 199 107 l 146 53 l 199 0 l 511 0 z "},"ß":{"ha":1260,"x_min":0,"x_max":0,"o":"m 1204 926 l 810 926 l 757 872 l 810 819 l 1097 819 l 1204 926 z m 1204 125 l 1204 454 l 1097 392 l 1097 125 l 1150 72 l 1204 125 z m 1157 463 l 1065 517 l 824 517 l 732 463 l 824 410 l 1065 410 l 1157 463 z m 792 533 l 792 801 l 739 854 l 685 801 l 685 472 l 792 533 z m 574 926 l 181 926 l 128 872 l 181 819 l 468 819 l 574 926 z m 1132 53 l 1079 107 l 792 107 l 685 0 l 1079 0 l 1132 53 z m 574 125 l 574 454 l 468 392 l 468 125 l 521 72 l 574 125 z m 528 463 l 436 517 l 194 517 l 101 463 l 194 410 l 436 410 l 528 463 z m 163 533 l 163 801 l 108 854 l 56 801 l 56 472 l 163 533 z m 503 53 l 449 107 l 163 107 l 56 0 l 449 0 l 503 53 z "},"Ä":{"ha":667,"x_min":0,"x_max":0,"o":"m 518 1000 l 518 1129 l 414 1129 l 414 1000 l 518 1000 z m 256 1000 l 256 1129 l 149 1129 l 149 1000 l 256 1000 z m 593 472 l 593 907 l 486 801 l 486 533 l 593 472 z m 574 926 l 93 926 l 199 819 l 468 819 l 574 926 z m 181 533 l 181 801 l 74 907 l 74 472 l 181 533 z m 538 463 l 444 517 l 222 517 l 129 463 l 222 410 l 444 410 l 538 463 z m 593 0 l 593 454 l 486 392 l 486 107 l 593 0 z m 181 107 l 181 392 l 74 454 l 74 0 l 181 107 z "},"Å":{"ha":667,"x_min":0,"x_max":0,"o":"m 440 1240 l 226 1240 l 301 1167 l 365 1167 l 440 1240 z m 454 1014 l 454 1226 l 379 1153 l 379 1088 l 454 1014 z m 288 1088 l 288 1153 l 213 1226 l 213 1014 l 288 1088 z m 440 1000 l 365 1074 l 301 1074 l 226 1000 l 440 1000 z m 593 472 l 593 907 l 486 801 l 486 533 l 593 472 z m 574 926 l 93 926 l 199 819 l 468 819 l 574 926 z m 181 533 l 181 801 l 74 907 l 74 472 l 181 533 z m 538 463 l 444 517 l 222 517 l 129 463 l 222 410 l 444 410 l 538 463 z m 593 0 l 593 454 l 486 392 l 486 107 l 593 0 z m 181 107 l 181 392 l 74 454 l 74 0 l 181 107 z "},"Ç":{"ha":601,"x_min":0,"x_max":0,"o":"m 574 926 l 208 926 l 153 867 l 199 819 l 468 819 l 574 926 z m 181 533 l 181 801 l 121 847 l 74 792 l 74 472 l 181 533 z m 574 0 l 468 107 l 199 107 l 146 53 l 199 0 l 574 0 z m 181 125 l 181 392 l 74 454 l 74 125 l 128 72 l 181 125 z m 415 -28 l 281 -28 l 186 -211 l 256 -310 l 415 -28 z "},"É":{"ha":611,"x_min":0,"x_max":0,"o":"m 488 1167 l 354 1167 l 161 1000 l 290 1000 l 488 1167 z m 574 926 l 93 926 l 199 819 l 468 819 l 574 926 z m 181 533 l 181 801 l 74 907 l 74 472 l 181 533 z m 546 463 l 454 517 l 213 517 l 121 463 l 213 410 l 454 410 l 546 463 z m 574 0 l 468 107 l 199 107 l 93 0 l 574 0 z m 181 125 l 181 392 l 74 454 l 74 18 l 181 125 z "},"Ñ":{"ha":667,"x_min":0,"x_max":0,"o":"m 564 1138 l 493 1169 l 440 1107 l 511 1075 l 564 1138 z m 497 1058 l 228 1176 l 169 1108 l 439 990 l 497 1058 z m 226 1061 l 156 1092 l 103 1029 l 174 999 l 226 1061 z m 521 872 l 468 926 l 199 926 l 146 872 l 199 819 l 468 819 l 521 872 z m 593 472 l 593 801 l 539 854 l 486 801 l 486 533 l 593 472 z m 181 533 l 181 801 l 128 854 l 74 801 l 74 472 l 181 533 z m 593 0 l 593 454 l 486 392 l 486 107 l 593 0 z m 181 107 l 181 392 l 74 454 l 74 0 l 181 107 z "},"Ö":{"ha":667,"x_min":0,"x_max":0,"o":"m 518 1000 l 518 1129 l 414 1129 l 414 1000 l 518 1000 z m 256 1000 l 256 1129 l 149 1129 l 149 1000 l 256 1000 z m 521 872 l 468 926 l 199 926 l 146 872 l 199 819 l 468 819 l 521 872 z m 593 472 l 593 801 l 539 854 l 486 801 l 486 533 l 593 472 z m 593 125 l 593 454 l 486 392 l 486 125 l 539 72 l 593 125 z m 181 533 l 181 801 l 128 854 l 74 801 l 74 472 l 181 533 z m 181 125 l 181 392 l 74 454 l 74 125 l 128 72 l 181 125 z m 521 53 l 468 107 l 199 107 l 146 53 l 199 0 l 468 0 l 521 53 z "},"Ü":{"ha":667,"x_min":0,"x_max":0,"o":"m 518 1000 l 518 1129 l 414 1129 l 414 1000 l 518 1000 z m 256 1000 l 256 1129 l 149 1129 l 149 1000 l 256 1000 z m 593 472 l 593 926 l 486 819 l 486 533 l 593 472 z m 181 533 l 181 819 l 74 926 l 74 472 l 181 533 z m 593 125 l 593 454 l 486 392 l 486 125 l 539 72 l 593 125 z m 181 125 l 181 392 l 74 454 l 74 125 l 128 72 l 181 125 z m 521 53 l 468 107 l 199 107 l 146 53 l 199 0 l 468 0 l 521 53 z "},"á":{"ha":667,"x_min":0,"x_max":0,"o":"m 515 1167 l 382 1167 l 189 1000 l 318 1000 l 515 1167 z m 593 472 l 593 907 l 486 801 l 486 533 l 593 472 z m 574 926 l 93 926 l 199 819 l 468 819 l 574 926 z m 181 533 l 181 801 l 74 907 l 74 472 l 181 533 z m 538 463 l 444 517 l 222 517 l 129 463 l 222 410 l 444 410 l 538 463 z m 593 0 l 593 454 l 486 392 l 486 107 l 593 0 z m 181 107 l 181 392 l 74 454 l 74 0 l 181 107 z "},"à":{"ha":667,"x_min":0,"x_max":0,"o":"m 478 1000 l 285 1167 l 151 1167 l 349 1000 l 478 1000 z m 593 472 l 593 907 l 486 801 l 486 533 l 593 472 z m 574 926 l 93 926 l 199 819 l 468 819 l 574 926 z m 181 533 l 181 801 l 74 907 l 74 472 l 181 533 z m 538 463 l 444 517 l 222 517 l 129 463 l 222 410 l 444 410 l 538 463 z m 593 0 l 593 454 l 486 392 l 486 107 l 593 0 z m 181 107 l 181 392 l 74 454 l 74 0 l 181 107 z "},"â":{"ha":667,"x_min":0,"x_max":0,"o":"m 556 1000 l 349 1178 l 349 1058 l 407 1000 l 556 1000 z m 318 1058 l 318 1178 l 111 1000 l 260 1000 l 318 1058 z m 593 472 l 593 907 l 486 801 l 486 533 l 593 472 z m 574 926 l 93 926 l 199 819 l 468 819 l 574 926 z m 181 533 l 181 801 l 74 907 l 74 472 l 181 533 z m 538 463 l 444 517 l 222 517 l 129 463 l 222 410 l 444 410 l 538 463 z m 593 0 l 593 454 l 486 392 l 486 107 l 593 0 z m 181 107 l 181 392 l 74 454 l 74 0 l 181 107 z "},"ä":{"ha":667,"x_min":0,"x_max":0,"o":"m 518 1000 l 518 1129 l 414 1129 l 414 1000 l 518 1000 z m 256 1000 l 256 1129 l 149 1129 l 149 1000 l 256 1000 z m 593 472 l 593 907 l 486 801 l 486 533 l 593 472 z m 574 926 l 93 926 l 199 819 l 468 819 l 574 926 z m 181 533 l 181 801 l 74 907 l 74 472 l 181 533 z m 538 463 l 444 517 l 222 517 l 129 463 l 222 410 l 444 410 l 538 463 z m 593 0 l 593 454 l 486 392 l 486 107 l 593 0 z m 181 107 l 181 392 l 74 454 l 74 0 l 181 107 z "},"ã":{"ha":667,"x_min":0,"x_max":0,"o":"m 564 1138 l 493 1169 l 440 1107 l 511 1075 l 564 1138 z m 497 1058 l 228 1176 l 169 1108 l 439 990 l 497 1058 z m 593 472 l 593 907 l 486 801 l 486 533 l 593 472 z m 226 1061 l 156 1092 l 103 1029 l 174 999 l 226 1061 z m 574 926 l 93 926 l 199 819 l 468 819 l 574 926 z m 181 533 l 181 801 l 74 907 l 74 472 l 181 533 z m 538 463 l 444 517 l 222 517 l 129 463 l 222 410 l 444 410 l 538 463 z m 593 0 l 593 454 l 486 392 l 486 107 l 593 0 z m 181 107 l 181 392 l 74 454 l 74 0 l 181 107 z "},"å":{"ha":667,"x_min":0,"x_max":0,"o":"m 440 1240 l 226 1240 l 301 1167 l 365 1167 l 440 1240 z m 454 1014 l 454 1226 l 379 1153 l 379 1088 l 454 1014 z m 288 1088 l 288 1153 l 213 1226 l 213 1014 l 288 1088 z m 440 1000 l 365 1074 l 301 1074 l 226 1000 l 440 1000 z m 593 472 l 593 907 l 486 801 l 486 533 l 593 472 z m 574 926 l 93 926 l 199 819 l 468 819 l 574 926 z m 181 533 l 181 801 l 74 907 l 74 472 l 181 533 z m 538 463 l 444 517 l 222 517 l 129 463 l 222 410 l 444 410 l 538 463 z m 593 0 l 593 454 l 486 392 l 486 107 l 593 0 z m 181 107 l 181 392 l 74 454 l 74 0 l 181 107 z "},"ç":{"ha":601,"x_min":0,"x_max":0,"o":"m 574 926 l 208 926 l 153 867 l 199 819 l 468 819 l 574 926 z m 181 533 l 181 801 l 121 847 l 74 792 l 74 472 l 181 533 z m 574 0 l 468 107 l 199 107 l 146 53 l 199 0 l 574 0 z m 181 125 l 181 392 l 74 454 l 74 125 l 128 72 l 181 125 z m 415 -28 l 281 -28 l 186 -211 l 256 -310 l 415 -28 z "},"é":{"ha":611,"x_min":0,"x_max":0,"o":"m 488 1167 l 354 1167 l 161 1000 l 290 1000 l 488 1167 z m 574 926 l 93 926 l 199 819 l 468 819 l 574 926 z m 181 533 l 181 801 l 74 907 l 74 472 l 181 533 z m 546 463 l 454 517 l 213 517 l 121 463 l 213 410 l 454 410 l 546 463 z m 574 0 l 468 107 l 199 107 l 93 0 l 574 0 z m 181 125 l 181 392 l 74 454 l 74 18 l 181 125 z "},"è":{"ha":611,"x_min":0,"x_max":0,"o":"m 450 1000 l 257 1167 l 124 1167 l 321 1000 l 450 1000 z m 574 926 l 93 926 l 199 819 l 468 819 l 574 926 z m 181 533 l 181 801 l 74 907 l 74 472 l 181 533 z m 546 463 l 454 517 l 213 517 l 121 463 l 213 410 l 454 410 l 546 463 z m 574 0 l 468 107 l 199 107 l 93 0 l 574 0 z m 181 125 l 181 392 l 74 454 l 74 18 l 181 125 z "},"ê":{"ha":611,"x_min":0,"x_max":0,"o":"m 528 1000 l 321 1178 l 321 1058 l 379 1000 l 528 1000 z m 290 1058 l 290 1178 l 83 1000 l 232 1000 l 290 1058 z m 574 926 l 93 926 l 199 819 l 468 819 l 574 926 z m 181 533 l 181 801 l 74 907 l 74 472 l 181 533 z m 546 463 l 454 517 l 213 517 l 121 463 l 213 410 l 454 410 l 546 463 z m 574 0 l 468 107 l 199 107 l 93 0 l 574 0 z m 181 125 l 181 392 l 74 454 l 74 18 l 181 125 z "},"ë":{"ha":611,"x_min":0,"x_max":0,"o":"m 490 1000 l 490 1129 l 386 1129 l 386 1000 l 490 1000 z m 228 1000 l 228 1129 l 121 1129 l 121 1000 l 228 1000 z m 574 926 l 93 926 l 199 819 l 468 819 l 574 926 z m 181 533 l 181 801 l 74 907 l 74 472 l 181 533 z m 546 463 l 454 517 l 213 517 l 121 463 l 213 410 l 454 410 l 546 463 z m 574 0 l 468 107 l 199 107 l 93 0 l 574 0 z m 181 125 l 181 392 l 74 454 l 74 18 l 181 125 z "},"í":{"ha":254,"x_min":0,"x_max":0,"o":"m 310 1167 l 175 1167 l -17 1000 l 111 1000 l 310 1167 z m 181 472 l 181 926 l 74 819 l 74 533 l 181 472 z m 181 0 l 181 454 l 74 392 l 74 107 l 181 0 z "},"ì":{"ha":254,"x_min":0,"x_max":0,"o":"m 272 1000 l 79 1167 l -54 1167 l 143 1000 l 272 1000 z m 181 472 l 181 926 l 74 819 l 74 533 l 181 472 z m 181 0 l 181 454 l 74 392 l 74 107 l 181 0 z "},"î":{"ha":254,"x_min":0,"x_max":0,"o":"m 349 1000 l 142 1178 l 142 1058 l 201 1000 l 349 1000 z m 113 1058 l 113 1178 l -94 1000 l 54 1000 l 113 1058 z m 181 472 l 181 926 l 74 819 l 74 533 l 181 472 z m 181 0 l 181 454 l 74 392 l 74 107 l 181 0 z "},"ï":{"ha":254,"x_min":0,"x_max":0,"o":"m 257 1000 l 257 1129 l 161 1129 l 161 1000 l 257 1000 z m 96 1000 l 96 1129 l -1 1129 l -1 1000 l 96 1000 z m 181 472 l 181 926 l 74 819 l 74 533 l 181 472 z m 181 0 l 181 454 l 74 392 l 74 107 l 181 0 z "},"ñ":{"ha":667,"x_min":0,"x_max":0,"o":"m 564 1138 l 493 1169 l 440 1107 l 511 1075 l 564 1138 z m 497 1058 l 228 1176 l 169 1108 l 439 990 l 497 1058 z m 226 1061 l 156 1092 l 103 1029 l 174 999 l 226 1061 z m 521 872 l 468 926 l 199 926 l 146 872 l 199 819 l 468 819 l 521 872 z m 593 472 l 593 801 l 539 854 l 486 801 l 486 533 l 593 472 z m 181 533 l 181 801 l 128 854 l 74 801 l 74 472 l 181 533 z m 593 0 l 593 454 l 486 392 l 486 107 l 593 0 z m 181 107 l 181 392 l 74 454 l 74 0 l 181 107 z "},"ó":{"ha":667,"x_min":0,"x_max":0,"o":"m 515 1167 l 382 1167 l 189 1000 l 318 1000 l 515 1167 z m 521 872 l 468 926 l 199 926 l 146 872 l 199 819 l 468 819 l 521 872 z m 593 472 l 593 801 l 539 854 l 486 801 l 486 533 l 593 472 z m 593 125 l 593 454 l 486 392 l 486 125 l 539 72 l 593 125 z m 181 533 l 181 801 l 128 854 l 74 801 l 74 472 l 181 533 z m 181 125 l 181 392 l 74 454 l 74 125 l 128 72 l 181 125 z m 521 53 l 468 107 l 199 107 l 146 53 l 199 0 l 468 0 l 521 53 z "},"ò":{"ha":667,"x_min":0,"x_max":0,"o":"m 478 1000 l 285 1167 l 151 1167 l 349 1000 l 478 1000 z m 521 872 l 468 926 l 199 926 l 146 872 l 199 819 l 468 819 l 521 872 z m 593 472 l 593 801 l 539 854 l 486 801 l 486 533 l 593 472 z m 593 125 l 593 454 l 486 392 l 486 125 l 539 72 l 593 125 z m 181 533 l 181 801 l 128 854 l 74 801 l 74 472 l 181 533 z m 181 125 l 181 392 l 74 454 l 74 125 l 128 72 l 181 125 z m 521 53 l 468 107 l 199 107 l 146 53 l 199 0 l 468 0 l 521 53 z "},"ô":{"ha":667,"x_min":0,"x_max":0,"o":"m 556 1000 l 349 1178 l 349 1058 l 407 1000 l 556 1000 z m 318 1058 l 318 1178 l 111 1000 l 260 1000 l 318 1058 z m 521 872 l 468 926 l 199 926 l 146 872 l 199 819 l 468 819 l 521 872 z m 593 472 l 593 801 l 539 854 l 486 801 l 486 533 l 593 472 z m 593 125 l 593 454 l 486 392 l 486 125 l 539 72 l 593 125 z m 181 533 l 181 801 l 128 854 l 74 801 l 74 472 l 181 533 z m 181 125 l 181 392 l 74 454 l 74 125 l 128 72 l 181 125 z m 521 53 l 468 107 l 199 107 l 146 53 l 199 0 l 468 0 l 521 53 z "},"ö":{"ha":667,"x_min":0,"x_max":0,"o":"m 518 1000 l 518 1129 l 414 1129 l 414 1000 l 518 1000 z m 256 1000 l 256 1129 l 149 1129 l 149 1000 l 256 1000 z m 521 872 l 468 926 l 199 926 l 146 872 l 199 819 l 468 819 l 521 872 z m 593 472 l 593 801 l 539 854 l 486 801 l 486 533 l 593 472 z m 593 125 l 593 454 l 486 392 l 486 125 l 539 72 l 593 125 z m 181 533 l 181 801 l 128 854 l 74 801 l 74 472 l 181 533 z m 181 125 l 181 392 l 74 454 l 74 125 l 128 72 l 181 125 z m 521 53 l 468 107 l 199 107 l 146 53 l 199 0 l 468 0 l 521 53 z "},"õ":{"ha":667,"x_min":0,"x_max":0,"o":"m 564 1138 l 493 1169 l 440 1107 l 511 1075 l 564 1138 z m 497 1058 l 228 1176 l 169 1108 l 439 990 l 497 1058 z m 226 1061 l 156 1092 l 103 1029 l 174 999 l 226 1061 z m 521 872 l 468 926 l 199 926 l 146 872 l 199 819 l 468 819 l 521 872 z m 593 472 l 593 801 l 539 854 l 486 801 l 486 533 l 593 472 z m 593 125 l 593 454 l 486 392 l 486 125 l 539 72 l 593 125 z m 181 533 l 181 801 l 128 854 l 74 801 l 74 472 l 181 533 z m 181 125 l 181 392 l 74 454 l 74 125 l 128 72 l 181 125 z m 521 53 l 468 107 l 199 107 l 146 53 l 199 0 l 468 0 l 521 53 z "},"ú":{"ha":667,"x_min":0,"x_max":0,"o":"m 515 1167 l 382 1167 l 189 1000 l 318 1000 l 515 1167 z m 593 472 l 593 926 l 486 819 l 486 533 l 593 472 z m 181 533 l 181 819 l 74 926 l 74 472 l 181 533 z m 593 125 l 593 454 l 486 392 l 486 125 l 539 72 l 593 125 z m 181 125 l 181 392 l 74 454 l 74 125 l 128 72 l 181 125 z m 521 53 l 468 107 l 199 107 l 146 53 l 199 0 l 468 0 l 521 53 z "},"ù":{"ha":667,"x_min":0,"x_max":0,"o":"m 478 1000 l 285 1167 l 151 1167 l 349 1000 l 478 1000 z m 593 472 l 593 926 l 486 819 l 486 533 l 593 472 z m 181 533 l 181 819 l 74 926 l 74 472 l 181 533 z m 593 125 l 593 454 l 486 392 l 486 125 l 539 72 l 593 125 z m 181 125 l 181 392 l 74 454 l 74 125 l 128 72 l 181 125 z m 521 53 l 468 107 l 199 107 l 146 53 l 199 0 l 468 0 l 521 53 z "},"û":{"ha":667,"x_min":0,"x_max":0,"o":"m 556 1000 l 349 1178 l 349 1058 l 407 1000 l 556 1000 z m 318 1058 l 318 1178 l 111 1000 l 260 1000 l 318 1058 z m 593 472 l 593 926 l 486 819 l 486 533 l 593 472 z m 181 533 l 181 819 l 74 926 l 74 472 l 181 533 z m 593 125 l 593 454 l 486 392 l 486 125 l 539 72 l 593 125 z m 181 125 l 181 392 l 74 454 l 74 125 l 128 72 l 181 125 z m 521 53 l 468 107 l 199 107 l 146 53 l 199 0 l 468 0 l 521 53 z "},"ü":{"ha":667,"x_min":0,"x_max":0,"o":"m 518 1000 l 518 1129 l 414 1129 l 414 1000 l 518 1000 z m 256 1000 l 256 1129 l 149 1129 l 149 1000 l 256 1000 z m 593 472 l 593 926 l 486 819 l 486 533 l 593 472 z m 181 533 l 181 819 l 74 926 l 74 472 l 181 533 z m 593 125 l 593 454 l 486 392 l 486 125 l 539 72 l 593 125 z m 181 125 l 181 392 l 74 454 l 74 125 l 128 72 l 181 125 z m 521 53 l 468 107 l 199 107 l 146 53 l 199 0 l 468 0 l 521 53 z "}," ":{"ha":347,"x_min":0,"x_max":0,"o":""},"À":{"ha":667,"x_min":0,"x_max":0,"o":"m 478 1000 l 285 1167 l 151 1167 l 349 1000 l 478 1000 z m 593 472 l 593 907 l 486 801 l 486 533 l 593 472 z m 574 926 l 93 926 l 199 819 l 468 819 l 574 926 z m 181 533 l 181 801 l 74 907 l 74 472 l 181 533 z m 538 463 l 444 517 l 222 517 l 129 463 l 222 410 l 444 410 l 538 463 z m 593 0 l 593 454 l 486 392 l 486 107 l 593 0 z m 181 107 l 181 392 l 74 454 l 74 0 l 181 107 z "},"Ã":{"ha":667,"x_min":0,"x_max":0,"o":"m 564 1138 l 493 1169 l 440 1107 l 511 1075 l 564 1138 z m 497 1058 l 228 1176 l 169 1108 l 439 990 l 497 1058 z m 593 472 l 593 907 l 486 801 l 486 533 l 593 472 z m 226 1061 l 156 1092 l 103 1029 l 174 999 l 226 1061 z m 574 926 l 93 926 l 199 819 l 468 819 l 574 926 z m 181 533 l 181 801 l 74 907 l 74 472 l 181 533 z m 538 463 l 444 517 l 222 517 l 129 463 l 222 410 l 444 410 l 538 463 z m 593 0 l 593 454 l 486 392 l 486 107 l 593 0 z m 181 107 l 181 392 l 74 454 l 74 0 l 181 107 z "},"Õ":{"ha":667,"x_min":0,"x_max":0,"o":"m 564 1138 l 493 1169 l 440 1107 l 511 1075 l 564 1138 z m 497 1058 l 228 1176 l 169 1108 l 439 990 l 497 1058 z m 226 1061 l 156 1092 l 103 1029 l 174 999 l 226 1061 z m 521 872 l 468 926 l 199 926 l 146 872 l 199 819 l 468 819 l 521 872 z m 593 472 l 593 801 l 539 854 l 486 801 l 486 533 l 593 472 z m 593 125 l 593 454 l 486 392 l 486 125 l 539 72 l 593 125 z m 181 533 l 181 801 l 128 854 l 74 801 l 74 472 l 181 533 z m 181 125 l 181 392 l 74 454 l 74 125 l 128 72 l 181 125 z m 521 53 l 468 107 l 199 107 l 146 53 l 199 0 l 468 0 l 521 53 z "},"ÿ":{"ha":629,"x_min":0,"x_max":0,"o":"m 500 1000 l 500 1129 l 396 1129 l 396 1000 l 500 1000 z m 236 1000 l 236 1129 l 131 1129 l 131 1000 l 236 1000 z m 574 490 l 574 926 l 468 819 l 468 533 l 558 481 l 574 490 z m 163 533 l 163 819 l 56 926 l 56 490 l 72 481 l 163 533 z m 528 463 l 436 517 l 194 517 l 101 463 l 194 410 l 436 410 l 528 463 z m 368 53 l 368 382 l 261 382 l 261 53 l 315 0 l 368 53 z "},"Ÿ":{"ha":629,"x_min":0,"x_max":0,"o":"m 500 1000 l 500 1129 l 396 1129 l 396 1000 l 500 1000 z m 236 1000 l 236 1129 l 131 1129 l 131 1000 l 236 1000 z m 574 490 l 574 926 l 468 819 l 468 533 l 558 481 l 574 490 z m 163 533 l 163 819 l 56 926 l 56 490 l 72 481 l 163 533 z m 528 463 l 436 517 l 194 517 l 101 463 l 194 410 l 436 410 l 528 463 z m 368 53 l 368 382 l 261 382 l 261 53 l 315 0 l 368 53 z "},"Â":{"ha":667,"x_min":0,"x_max":0,"o":"m 556 1000 l 349 1178 l 349 1058 l 407 1000 l 556 1000 z m 318 1058 l 318 1178 l 111 1000 l 260 1000 l 318 1058 z m 593 472 l 593 907 l 486 801 l 486 533 l 593 472 z m 574 926 l 93 926 l 199 819 l 468 819 l 574 926 z m 181 533 l 181 801 l 74 907 l 74 472 l 181 533 z m 538 463 l 444 517 l 222 517 l 129 463 l 222 410 l 444 410 l 538 463 z m 593 0 l 593 454 l 486 392 l 486 107 l 593 0 z m 181 107 l 181 392 l 74 454 l 74 0 l 181 107 z "},"Ê":{"ha":611,"x_min":0,"x_max":0,"o":"m 528 1000 l 321 1178 l 321 1058 l 379 1000 l 528 1000 z m 290 1058 l 290 1178 l 83 1000 l 232 1000 l 290 1058 z m 574 926 l 93 926 l 199 819 l 468 819 l 574 926 z m 181 533 l 181 801 l 74 907 l 74 472 l 181 533 z m 546 463 l 454 517 l 213 517 l 121 463 l 213 410 l 454 410 l 546 463 z m 574 0 l 468 107 l 199 107 l 93 0 l 574 0 z m 181 125 l 181 392 l 74 454 l 74 18 l 181 125 z "},"Á":{"ha":667,"x_min":0,"x_max":0,"o":"m 515 1167 l 382 1167 l 189 1000 l 318 1000 l 515 1167 z m 593 472 l 593 907 l 486 801 l 486 533 l 593 472 z m 574 926 l 93 926 l 199 819 l 468 819 l 574 926 z m 181 533 l 181 801 l 74 907 l 74 472 l 181 533 z m 538 463 l 444 517 l 222 517 l 129 463 l 222 410 l 444 410 l 538 463 z m 593 0 l 593 454 l 486 392 l 486 107 l 593 0 z m 181 107 l 181 392 l 74 454 l 74 0 l 181 107 z "},"Ë":{"ha":611,"x_min":0,"x_max":0,"o":"m 490 1000 l 490 1129 l 386 1129 l 386 1000 l 490 1000 z m 228 1000 l 228 1129 l 121 1129 l 121 1000 l 228 1000 z m 574 926 l 93 926 l 199 819 l 468 819 l 574 926 z m 181 533 l 181 801 l 74 907 l 74 472 l 181 533 z m 546 463 l 454 517 l 213 517 l 121 463 l 213 410 l 454 410 l 546 463 z m 574 0 l 468 107 l 199 107 l 93 0 l 574 0 z m 181 125 l 181 392 l 74 454 l 74 18 l 181 125 z "},"È":{"ha":611,"x_min":0,"x_max":0,"o":"m 450 1000 l 257 1167 l 124 1167 l 321 1000 l 450 1000 z m 574 926 l 93 926 l 199 819 l 468 819 l 574 926 z m 181 533 l 181 801 l 74 907 l 74 472 l 181 533 z m 546 463 l 454 517 l 213 517 l 121 463 l 213 410 l 454 410 l 546 463 z m 574 0 l 468 107 l 199 107 l 93 0 l 574 0 z m 181 125 l 181 392 l 74 454 l 74 18 l 181 125 z "},"Í":{"ha":254,"x_min":0,"x_max":0,"o":"m 310 1167 l 175 1167 l -17 1000 l 111 1000 l 310 1167 z m 181 472 l 181 926 l 74 819 l 74 533 l 181 472 z m 181 0 l 181 454 l 74 392 l 74 107 l 181 0 z "},"Î":{"ha":254,"x_min":0,"x_max":0,"o":"m 349 1000 l 142 1178 l 142 1058 l 201 1000 l 349 1000 z m 113 1058 l 113 1178 l -94 1000 l 54 1000 l 113 1058 z m 181 472 l 181 926 l 74 819 l 74 533 l 181 472 z m 181 0 l 181 454 l 74 392 l 74 107 l 181 0 z "},"Ï":{"ha":254,"x_min":0,"x_max":0,"o":"m 257 1000 l 257 1129 l 161 1129 l 161 1000 l 257 1000 z m 96 1000 l 96 1129 l -1 1129 l -1 1000 l 96 1000 z m 181 472 l 181 926 l 74 819 l 74 533 l 181 472 z m 181 0 l 181 454 l 74 392 l 74 107 l 181 0 z "},"Ì":{"ha":254,"x_min":0,"x_max":0,"o":"m 272 1000 l 79 1167 l -54 1167 l 143 1000 l 272 1000 z m 181 472 l 181 926 l 74 819 l 74 533 l 181 472 z m 181 0 l 181 454 l 74 392 l 74 107 l 181 0 z "},"Ó":{"ha":667,"x_min":0,"x_max":0,"o":"m 515 1167 l 382 1167 l 189 1000 l 318 1000 l 515 1167 z m 521 872 l 468 926 l 199 926 l 146 872 l 199 819 l 468 819 l 521 872 z m 593 472 l 593 801 l 539 854 l 486 801 l 486 533 l 593 472 z m 593 125 l 593 454 l 486 392 l 486 125 l 539 72 l 593 125 z m 181 533 l 181 801 l 128 854 l 74 801 l 74 472 l 181 533 z m 181 125 l 181 392 l 74 454 l 74 125 l 128 72 l 181 125 z m 521 53 l 468 107 l 199 107 l 146 53 l 199 0 l 468 0 l 521 53 z "},"Ô":{"ha":667,"x_min":0,"x_max":0,"o":"m 556 1000 l 349 1178 l 349 1058 l 407 1000 l 556 1000 z m 318 1058 l 318 1178 l 111 1000 l 260 1000 l 318 1058 z m 521 872 l 468 926 l 199 926 l 146 872 l 199 819 l 468 819 l 521 872 z m 593 472 l 593 801 l 539 854 l 486 801 l 486 533 l 593 472 z m 593 125 l 593 454 l 486 392 l 486 125 l 539 72 l 593 125 z m 181 533 l 181 801 l 128 854 l 74 801 l 74 472 l 181 533 z m 181 125 l 181 392 l 74 454 l 74 125 l 128 72 l 181 125 z m 521 53 l 468 107 l 199 107 l 146 53 l 199 0 l 468 0 l 521 53 z "},"Ò":{"ha":667,"x_min":0,"x_max":0,"o":"m 478 1000 l 285 1167 l 151 1167 l 349 1000 l 478 1000 z m 521 872 l 468 926 l 199 926 l 146 872 l 199 819 l 468 819 l 521 872 z m 593 472 l 593 801 l 539 854 l 486 801 l 486 533 l 593 472 z m 593 125 l 593 454 l 486 392 l 486 125 l 539 72 l 593 125 z m 181 533 l 181 801 l 128 854 l 74 801 l 74 472 l 181 533 z m 181 125 l 181 392 l 74 454 l 74 125 l 128 72 l 181 125 z m 521 53 l 468 107 l 199 107 l 146 53 l 199 0 l 468 0 l 521 53 z "},"Ú":{"ha":667,"x_min":0,"x_max":0,"o":"m 515 1167 l 382 1167 l 189 1000 l 318 1000 l 515 1167 z m 593 472 l 593 926 l 486 819 l 486 533 l 593 472 z m 181 533 l 181 819 l 74 926 l 74 472 l 181 533 z m 593 125 l 593 454 l 486 392 l 486 125 l 539 72 l 593 125 z m 181 125 l 181 392 l 74 454 l 74 125 l 128 72 l 181 125 z m 521 53 l 468 107 l 199 107 l 146 53 l 199 0 l 468 0 l 521 53 z "},"Û":{"ha":667,"x_min":0,"x_max":0,"o":"m 556 1000 l 349 1178 l 349 1058 l 407 1000 l 556 1000 z m 318 1058 l 318 1178 l 111 1000 l 260 1000 l 318 1058 z m 593 472 l 593 926 l 486 819 l 486 533 l 593 472 z m 181 533 l 181 819 l 74 926 l 74 472 l 181 533 z m 593 125 l 593 454 l 486 392 l 486 125 l 539 72 l 593 125 z m 181 125 l 181 392 l 74 454 l 74 125 l 128 72 l 181 125 z m 521 53 l 468 107 l 199 107 l 146 53 l 199 0 l 468 0 l 521 53 z "},"Ù":{"ha":667,"x_min":0,"x_max":0,"o":"m 478 1000 l 285 1167 l 151 1167 l 349 1000 l 478 1000 z m 593 472 l 593 926 l 486 819 l 486 533 l 593 472 z m 181 533 l 181 819 l 74 926 l 74 472 l 181 533 z m 593 125 l 593 454 l 486 392 l 486 125 l 539 72 l 593 125 z m 181 125 l 181 392 l 74 454 l 74 125 l 128 72 l 181 125 z m 521 53 l 468 107 l 199 107 l 146 53 l 199 0 l 468 0 l 521 53 z "}}}
